<?xml version="1.0" encoding="us-ascii" standalone="no"?><svg xmlns="http://www.w3.org/2000/svg" xmlns:xlink="http://www.w3.org/1999/xlink" contentStyleType="text/css" height="727px" preserveAspectRatio="none" style="width:1350px;height:727px;background:#FFFFFF;" version="1.1" viewBox="0 0 1350 727" width="1350px" zoomAndPan="magnify"><defs/><g><!--class courses--><g id="elem_courses"><rect codeLine="22" fill="#FFFFFF" height="207.5938" id="courses" rx="2.5" ry="2.5" style="stroke:#000000;stroke-width:0.5;" width="186" x="7" y="454"/><text fill="#000000" font-family="Calibri" font-size="16" lengthAdjust="spacing" textLength="63" x="68.5" y="473.8516">courses</text><line style="stroke:#000000;stroke-width:0.5;" x1="8" x2="192" y1="482.625" y2="482.625"/><ellipse cx="18" cy="496.2734" fill="none" rx="3" ry="3" style="stroke:#038048;stroke-width:1.0;"/><text fill="#000000" font-family="sans-serif" font-size="14" lengthAdjust="spacing" textLength="136" x="27" y="499.6201">id: bigint UNSIGNED</text><ellipse cx="18" cy="512.5703" fill="none" rx="3" ry="3" style="stroke:#038048;stroke-width:1.0;"/><text fill="#000000" font-family="sans-serif" font-size="14" lengthAdjust="spacing" textLength="112" x="27" y="515.917">description: text</text><ellipse cx="18" cy="528.8672" fill="none" rx="3" ry="3" style="stroke:#038048;stroke-width:1.0;"/><text fill="#000000" font-family="sans-serif" font-size="14" lengthAdjust="spacing" textLength="155" x="27" y="532.2139">created_at: timestamp</text><ellipse cx="18" cy="545.1641" fill="none" rx="3" ry="3" style="stroke:#038048;stroke-width:1.0;"/><text fill="#000000" font-family="sans-serif" font-size="14" lengthAdjust="spacing" textLength="160" x="27" y="548.5107">updated_at: timestamp</text><ellipse cx="18" cy="561.4609" fill="none" rx="3" ry="3" style="stroke:#038048;stroke-width:1.0;"/><text fill="#000000" font-family="sans-serif" font-size="14" lengthAdjust="spacing" textLength="116" x="27" y="564.8076">paragraphs: json</text><ellipse cx="18" cy="577.7578" fill="none" rx="3" ry="3" style="stroke:#038048;stroke-width:1.0;"/><text fill="#000000" font-family="sans-serif" font-size="14" lengthAdjust="spacing" textLength="155" x="27" y="581.1045">deleted_at: timestamp</text><line style="stroke:#000000;stroke-width:0.5;" x1="8" x2="192" y1="588.4063" y2="588.4063"/><ellipse cx="18" cy="602.0547" fill="#84BE84" rx="3" ry="3" style="stroke:#038048;stroke-width:1.0;"/><text fill="#000000" font-family="sans-serif" font-size="14" lengthAdjust="spacing" textLength="121" x="27" y="605.4014">title: varchar(255)</text><ellipse cx="18" cy="618.3516" fill="#84BE84" rx="3" ry="3" style="stroke:#038048;stroke-width:1.0;"/><text fill="#000000" font-family="sans-serif" font-size="14" lengthAdjust="spacing" textLength="149" x="27" y="621.6982">preview: varchar(255)</text><ellipse cx="18" cy="634.6484" fill="#84BE84" rx="3" ry="3" style="stroke:#038048;stroke-width:1.0;"/><text fill="#000000" font-family="sans-serif" font-size="14" lengthAdjust="spacing" textLength="135" x="27" y="637.9951">name: varchar(255)</text><ellipse cx="18" cy="650.9453" fill="#84BE84" rx="3" ry="3" style="stroke:#038048;stroke-width:1.0;"/><text fill="#000000" font-family="sans-serif" font-size="14" lengthAdjust="spacing" textLength="137" x="27" y="654.292">price: decimal(10,2)</text></g><!--class course_user--><g id="elem_course_user"><rect codeLine="35" fill="#FFFFFF" height="118.1094" id="course_user" rx="2.5" ry="2.5" style="stroke:#000000;stroke-width:0.5;" width="217" x="256.5" y="602"/><text fill="#000000" font-family="Calibri" font-size="16" lengthAdjust="spacing" textLength="97" x="316.5" y="621.8516">course_user</text><line style="stroke:#000000;stroke-width:0.5;" x1="257.5" x2="472.5" y1="630.625" y2="630.625"/><ellipse cx="267.5" cy="644.2734" fill="none" rx="3" ry="3" style="stroke:#038048;stroke-width:1.0;"/><text fill="#000000" font-family="sans-serif" font-size="14" lengthAdjust="spacing" textLength="136" x="276.5" y="647.6201">id: bigint UNSIGNED</text><ellipse cx="267.5" cy="660.5703" fill="none" rx="3" ry="3" style="stroke:#038048;stroke-width:1.0;"/><text fill="#000000" font-family="sans-serif" font-size="14" lengthAdjust="spacing" textLength="174" x="276.5" y="663.917">user_id: bigint UNSIGNED</text><ellipse cx="267.5" cy="676.8672" fill="none" rx="3" ry="3" style="stroke:#038048;stroke-width:1.0;"/><text fill="#000000" font-family="sans-serif" font-size="14" lengthAdjust="spacing" textLength="191" x="276.5" y="680.2139">course_id: bigint UNSIGNED</text><ellipse cx="267.5" cy="693.1641" fill="none" rx="3" ry="3" style="stroke:#038048;stroke-width:1.0;"/><text fill="#000000" font-family="sans-serif" font-size="14" lengthAdjust="spacing" textLength="155" x="276.5" y="696.5107">created_at: timestamp</text><ellipse cx="267.5" cy="709.4609" fill="none" rx="3" ry="3" style="stroke:#038048;stroke-width:1.0;"/><text fill="#000000" font-family="sans-serif" font-size="14" lengthAdjust="spacing" textLength="160" x="276.5" y="712.8076">updated_at: timestamp</text></g><!--class difficulties--><g id="elem_difficulties"><rect codeLine="43" fill="#FFFFFF" height="109.8125" id="difficulties" rx="2.5" ry="2.5" style="stroke:#000000;stroke-width:0.5;" width="186" x="551.5" y="524"/><text fill="#000000" font-family="Calibri" font-size="16" lengthAdjust="spacing" textLength="77" x="606" y="543.8516">difficulties</text><line style="stroke:#000000;stroke-width:0.5;" x1="552.5" x2="736.5" y1="552.625" y2="552.625"/><ellipse cx="562.5" cy="566.2734" fill="none" rx="3" ry="3" style="stroke:#038048;stroke-width:1.0;"/><text fill="#000000" font-family="sans-serif" font-size="14" lengthAdjust="spacing" textLength="136" x="571.5" y="569.6201">id: bigint UNSIGNED</text><ellipse cx="562.5" cy="582.5703" fill="none" rx="3" ry="3" style="stroke:#038048;stroke-width:1.0;"/><text fill="#000000" font-family="sans-serif" font-size="14" lengthAdjust="spacing" textLength="155" x="571.5" y="585.917">created_at: timestamp</text><ellipse cx="562.5" cy="598.8672" fill="none" rx="3" ry="3" style="stroke:#038048;stroke-width:1.0;"/><text fill="#000000" font-family="sans-serif" font-size="14" lengthAdjust="spacing" textLength="160" x="571.5" y="602.2139">updated_at: timestamp</text><line style="stroke:#000000;stroke-width:0.5;" x1="552.5" x2="736.5" y1="609.5156" y2="609.5156"/><ellipse cx="562.5" cy="623.1641" fill="#84BE84" rx="3" ry="3" style="stroke:#038048;stroke-width:1.0;"/><text fill="#000000" font-family="sans-serif" font-size="14" lengthAdjust="spacing" textLength="135" x="571.5" y="626.5107">name: varchar(255)</text></g><!--class feedback--><g id="elem_feedback"><rect codeLine="50" fill="#FFFFFF" height="142.4063" id="feedback" rx="2.5" ry="2.5" style="stroke:#000000;stroke-width:0.5;" width="186" x="7" y="277"/><text fill="#000000" font-family="Calibri" font-size="16" lengthAdjust="spacing" textLength="71" x="64.5" y="296.8516">feedback</text><line style="stroke:#000000;stroke-width:0.5;" x1="8" x2="192" y1="305.625" y2="305.625"/><ellipse cx="18" cy="319.2734" fill="none" rx="3" ry="3" style="stroke:#038048;stroke-width:1.0;"/><text fill="#000000" font-family="sans-serif" font-size="14" lengthAdjust="spacing" textLength="136" x="27" y="322.6201">id: bigint UNSIGNED</text><ellipse cx="18" cy="335.5703" fill="none" rx="3" ry="3" style="stroke:#038048;stroke-width:1.0;"/><text fill="#000000" font-family="sans-serif" font-size="14" lengthAdjust="spacing" textLength="99" x="27" y="338.917">message: text</text><ellipse cx="18" cy="351.8672" fill="none" rx="3" ry="3" style="stroke:#038048;stroke-width:1.0;"/><text fill="#000000" font-family="sans-serif" font-size="14" lengthAdjust="spacing" textLength="155" x="27" y="355.2139">created_at: timestamp</text><ellipse cx="18" cy="368.1641" fill="none" rx="3" ry="3" style="stroke:#038048;stroke-width:1.0;"/><text fill="#000000" font-family="sans-serif" font-size="14" lengthAdjust="spacing" textLength="160" x="27" y="371.5107">updated_at: timestamp</text><line style="stroke:#000000;stroke-width:0.5;" x1="8" x2="192" y1="378.8125" y2="378.8125"/><ellipse cx="18" cy="392.4609" fill="#84BE84" rx="3" ry="3" style="stroke:#038048;stroke-width:1.0;"/><text fill="#000000" font-family="sans-serif" font-size="14" lengthAdjust="spacing" textLength="135" x="27" y="395.8076">name: varchar(255)</text><ellipse cx="18" cy="408.7578" fill="#84BE84" rx="3" ry="3" style="stroke:#038048;stroke-width:1.0;"/><text fill="#000000" font-family="sans-serif" font-size="14" lengthAdjust="spacing" textLength="132" x="27" y="412.1045">email: varchar(255)</text></g><!--class lessons--><g id="elem_lessons"><rect codeLine="59" fill="#FFFFFF" height="223.8906" id="lessons" rx="2.5" ry="2.5" style="stroke:#000000;stroke-width:0.5;" width="224" x="253" y="318"/><text fill="#000000" font-family="Calibri" font-size="16" lengthAdjust="spacing" textLength="59" x="335.5" y="337.8516">lessons</text><line style="stroke:#000000;stroke-width:0.5;" x1="254" x2="476" y1="346.625" y2="346.625"/><ellipse cx="264" cy="360.2734" fill="none" rx="3" ry="3" style="stroke:#038048;stroke-width:1.0;"/><text fill="#000000" font-family="sans-serif" font-size="14" lengthAdjust="spacing" textLength="136" x="273" y="363.6201">id: bigint UNSIGNED</text><ellipse cx="264" cy="376.5703" fill="none" rx="3" ry="3" style="stroke:#038048;stroke-width:1.0;"/><text fill="#000000" font-family="sans-serif" font-size="14" lengthAdjust="spacing" textLength="60" x="273" y="379.917">title: text</text><ellipse cx="264" cy="392.8672" fill="none" rx="3" ry="3" style="stroke:#038048;stroke-width:1.0;"/><text fill="#000000" font-family="sans-serif" font-size="14" lengthAdjust="spacing" textLength="112" x="273" y="396.2139">description: text</text><ellipse cx="264" cy="409.1641" fill="none" rx="3" ry="3" style="stroke:#038048;stroke-width:1.0;"/><text fill="#000000" font-family="sans-serif" font-size="14" lengthAdjust="spacing" textLength="89" x="273" y="412.5107">content: text</text><ellipse cx="264" cy="425.4609" fill="none" rx="3" ry="3" style="stroke:#038048;stroke-width:1.0;"/><text fill="#000000" font-family="sans-serif" font-size="14" lengthAdjust="spacing" textLength="198" x="273" y="428.8076">difficulty_id: bigint UNSIGNED</text><ellipse cx="264" cy="441.7578" fill="none" rx="3" ry="3" style="stroke:#038048;stroke-width:1.0;"/><text fill="#000000" font-family="sans-serif" font-size="14" lengthAdjust="spacing" textLength="155" x="273" y="445.1045">created_at: timestamp</text><ellipse cx="264" cy="458.0547" fill="none" rx="3" ry="3" style="stroke:#038048;stroke-width:1.0;"/><text fill="#000000" font-family="sans-serif" font-size="14" lengthAdjust="spacing" textLength="160" x="273" y="461.4014">updated_at: timestamp</text><ellipse cx="264" cy="474.3516" fill="none" rx="3" ry="3" style="stroke:#038048;stroke-width:1.0;"/><text fill="#000000" font-family="sans-serif" font-size="14" lengthAdjust="spacing" textLength="116" x="273" y="477.6982">paragraphs: json</text><ellipse cx="264" cy="490.6484" fill="none" rx="3" ry="3" style="stroke:#038048;stroke-width:1.0;"/><text fill="#000000" font-family="sans-serif" font-size="14" lengthAdjust="spacing" textLength="191" x="273" y="493.9951">course_id: bigint UNSIGNED</text><ellipse cx="264" cy="506.9453" fill="none" rx="3" ry="3" style="stroke:#038048;stroke-width:1.0;"/><text fill="#000000" font-family="sans-serif" font-size="14" lengthAdjust="spacing" textLength="155" x="273" y="510.292">deleted_at: timestamp</text><line style="stroke:#000000;stroke-width:0.5;" x1="254" x2="476" y1="517.5938" y2="517.5938"/><ellipse cx="264" cy="531.2422" fill="#84BE84" rx="3" ry="3" style="stroke:#038048;stroke-width:1.0;"/><text fill="#000000" font-family="sans-serif" font-size="14" lengthAdjust="spacing" textLength="138" x="273" y="534.5889">image: varchar(255)</text></g><!--class lesson_user--><g id="elem_lesson_user"><rect codeLine="73" fill="#FFFFFF" height="118.1094" id="lesson_user" rx="2.5" ry="2.5" style="stroke:#000000;stroke-width:0.5;" width="215" x="537" y="371"/><text fill="#000000" font-family="Calibri" font-size="16" lengthAdjust="spacing" textLength="93" x="598" y="390.8516">lesson_user</text><line style="stroke:#000000;stroke-width:0.5;" x1="538" x2="751" y1="399.625" y2="399.625"/><ellipse cx="548" cy="413.2734" fill="none" rx="3" ry="3" style="stroke:#038048;stroke-width:1.0;"/><text fill="#000000" font-family="sans-serif" font-size="14" lengthAdjust="spacing" textLength="136" x="557" y="416.6201">id: bigint UNSIGNED</text><ellipse cx="548" cy="429.5703" fill="none" rx="3" ry="3" style="stroke:#038048;stroke-width:1.0;"/><text fill="#000000" font-family="sans-serif" font-size="14" lengthAdjust="spacing" textLength="174" x="557" y="432.917">user_id: bigint UNSIGNED</text><ellipse cx="548" cy="445.8672" fill="none" rx="3" ry="3" style="stroke:#038048;stroke-width:1.0;"/><text fill="#000000" font-family="sans-serif" font-size="14" lengthAdjust="spacing" textLength="189" x="557" y="449.2139">lesson_id: bigint UNSIGNED</text><ellipse cx="548" cy="462.1641" fill="none" rx="3" ry="3" style="stroke:#038048;stroke-width:1.0;"/><text fill="#000000" font-family="sans-serif" font-size="14" lengthAdjust="spacing" textLength="155" x="557" y="465.5107">created_at: timestamp</text><ellipse cx="548" cy="478.4609" fill="none" rx="3" ry="3" style="stroke:#038048;stroke-width:1.0;"/><text fill="#000000" font-family="sans-serif" font-size="14" lengthAdjust="spacing" textLength="160" x="557" y="481.8076">updated_at: timestamp</text></g><!--class messages--><g id="elem_messages"><rect codeLine="81" fill="#FFFFFF" height="150.7031" id="messages" rx="2.5" ry="2.5" style="stroke:#000000;stroke-width:0.5;" width="215" x="537" y="184.5"/><text fill="#000000" font-family="Calibri" font-size="16" lengthAdjust="spacing" textLength="79" x="605" y="204.3516">messages</text><line style="stroke:#000000;stroke-width:0.5;" x1="538" x2="751" y1="213.125" y2="213.125"/><ellipse cx="548" cy="226.7734" fill="none" rx="3" ry="3" style="stroke:#038048;stroke-width:1.0;"/><text fill="#000000" font-family="sans-serif" font-size="14" lengthAdjust="spacing" textLength="136" x="557" y="230.1201">id: bigint UNSIGNED</text><ellipse cx="548" cy="243.0703" fill="none" rx="3" ry="3" style="stroke:#038048;stroke-width:1.0;"/><text fill="#000000" font-family="sans-serif" font-size="14" lengthAdjust="spacing" textLength="189" x="557" y="246.417">lesson_id: bigint UNSIGNED</text><ellipse cx="548" cy="259.3672" fill="none" rx="3" ry="3" style="stroke:#038048;stroke-width:1.0;"/><text fill="#000000" font-family="sans-serif" font-size="14" lengthAdjust="spacing" textLength="174" x="557" y="262.7139">user_id: bigint UNSIGNED</text><ellipse cx="548" cy="275.6641" fill="none" rx="3" ry="3" style="stroke:#038048;stroke-width:1.0;"/><text fill="#000000" font-family="sans-serif" font-size="14" lengthAdjust="spacing" textLength="188" x="557" y="279.0107">parent_id: bigint UNSIGNED</text><ellipse cx="548" cy="291.9609" fill="none" rx="3" ry="3" style="stroke:#038048;stroke-width:1.0;"/><text fill="#000000" font-family="sans-serif" font-size="14" lengthAdjust="spacing" textLength="69" x="557" y="295.3076">body: text</text><ellipse cx="548" cy="308.2578" fill="none" rx="3" ry="3" style="stroke:#038048;stroke-width:1.0;"/><text fill="#000000" font-family="sans-serif" font-size="14" lengthAdjust="spacing" textLength="155" x="557" y="311.6045">created_at: timestamp</text><ellipse cx="548" cy="324.5547" fill="none" rx="3" ry="3" style="stroke:#038048;stroke-width:1.0;"/><text fill="#000000" font-family="sans-serif" font-size="14" lengthAdjust="spacing" textLength="160" x="557" y="327.9014">updated_at: timestamp</text></g><!--class questions--><g id="elem_questions"><rect codeLine="91" fill="#FFFFFF" height="118.1094" id="questions" rx="2.5" ry="2.5" style="stroke:#000000;stroke-width:0.5;" width="196" x="834.5" y="20"/><text fill="#000000" font-family="Calibri" font-size="16" lengthAdjust="spacing" textLength="76" x="894.5" y="39.8516">questions</text><line style="stroke:#000000;stroke-width:0.5;" x1="835.5" x2="1029.5" y1="48.625" y2="48.625"/><ellipse cx="845.5" cy="62.2734" fill="none" rx="3" ry="3" style="stroke:#038048;stroke-width:1.0;"/><text fill="#000000" font-family="sans-serif" font-size="14" lengthAdjust="spacing" textLength="136" x="854.5" y="65.6201">id: bigint UNSIGNED</text><ellipse cx="845.5" cy="78.5703" fill="none" rx="3" ry="3" style="stroke:#038048;stroke-width:1.0;"/><text fill="#000000" font-family="sans-serif" font-size="14" lengthAdjust="spacing" textLength="170" x="854.5" y="81.917">test_id: bigint UNSIGNED</text><ellipse cx="845.5" cy="94.8672" fill="none" rx="3" ry="3" style="stroke:#038048;stroke-width:1.0;"/><text fill="#000000" font-family="sans-serif" font-size="14" lengthAdjust="spacing" textLength="96" x="854.5" y="98.2139">question: text</text><ellipse cx="845.5" cy="111.1641" fill="none" rx="3" ry="3" style="stroke:#038048;stroke-width:1.0;"/><text fill="#000000" font-family="sans-serif" font-size="14" lengthAdjust="spacing" textLength="155" x="854.5" y="114.5107">created_at: timestamp</text><ellipse cx="845.5" cy="127.4609" fill="none" rx="3" ry="3" style="stroke:#038048;stroke-width:1.0;"/><text fill="#000000" font-family="sans-serif" font-size="14" lengthAdjust="spacing" textLength="160" x="854.5" y="130.8076">updated_at: timestamp</text></g><!--class saved_answers--><g id="elem_saved_answers"><rect codeLine="99" fill="#FFFFFF" height="134.4063" id="saved_answers" rx="2.5" ry="2.5" style="stroke:#000000;stroke-width:0.5;" width="230" x="1113" y="186"/><text fill="#000000" font-family="Calibri" font-size="16" lengthAdjust="spacing" textLength="120" x="1168" y="205.8516">saved_answers</text><line style="stroke:#000000;stroke-width:0.5;" x1="1114" x2="1342" y1="214.625" y2="214.625"/><ellipse cx="1124" cy="228.2734" fill="none" rx="3" ry="3" style="stroke:#038048;stroke-width:1.0;"/><text fill="#000000" font-family="sans-serif" font-size="14" lengthAdjust="spacing" textLength="136" x="1133" y="231.6201">id: bigint UNSIGNED</text><ellipse cx="1124" cy="244.5703" fill="none" rx="3" ry="3" style="stroke:#038048;stroke-width:1.0;"/><text fill="#000000" font-family="sans-serif" font-size="14" lengthAdjust="spacing" textLength="174" x="1133" y="247.917">user_id: bigint UNSIGNED</text><ellipse cx="1124" cy="260.8672" fill="none" rx="3" ry="3" style="stroke:#038048;stroke-width:1.0;"/><text fill="#000000" font-family="sans-serif" font-size="14" lengthAdjust="spacing" textLength="193" x="1133" y="264.2139">answer_id: bigint UNSIGNED</text><ellipse cx="1124" cy="277.1641" fill="none" rx="3" ry="3" style="stroke:#038048;stroke-width:1.0;"/><text fill="#000000" font-family="sans-serif" font-size="14" lengthAdjust="spacing" textLength="155" x="1133" y="280.5107">created_at: timestamp</text><ellipse cx="1124" cy="293.4609" fill="none" rx="3" ry="3" style="stroke:#038048;stroke-width:1.0;"/><text fill="#000000" font-family="sans-serif" font-size="14" lengthAdjust="spacing" textLength="160" x="1133" y="296.8076">updated_at: timestamp</text><ellipse cx="1124" cy="309.7578" fill="none" rx="3" ry="3" style="stroke:#038048;stroke-width:1.0;"/><text fill="#000000" font-family="sans-serif" font-size="14" lengthAdjust="spacing" textLength="204" x="1133" y="313.1045">question_id: bigint UNSIGNED</text></g><!--class tests--><g id="elem_tests"><rect codeLine="108" fill="#FFFFFF" height="142.4063" id="tests" rx="2.5" ry="2.5" style="stroke:#000000;stroke-width:0.5;" width="215" x="537" y="7"/><text fill="#000000" font-family="Calibri" font-size="16" lengthAdjust="spacing" textLength="39" x="625" y="26.8516">tests</text><line style="stroke:#000000;stroke-width:0.5;" x1="538" x2="751" y1="35.625" y2="35.625"/><ellipse cx="548" cy="49.2734" fill="none" rx="3" ry="3" style="stroke:#038048;stroke-width:1.0;"/><text fill="#000000" font-family="sans-serif" font-size="14" lengthAdjust="spacing" textLength="136" x="557" y="52.6201">id: bigint UNSIGNED</text><ellipse cx="548" cy="65.5703" fill="none" rx="3" ry="3" style="stroke:#038048;stroke-width:1.0;"/><text fill="#000000" font-family="sans-serif" font-size="14" lengthAdjust="spacing" textLength="189" x="557" y="68.917">lesson_id: bigint UNSIGNED</text><ellipse cx="548" cy="81.8672" fill="none" rx="3" ry="3" style="stroke:#038048;stroke-width:1.0;"/><text fill="#000000" font-family="sans-serif" font-size="14" lengthAdjust="spacing" textLength="112" x="557" y="85.2139">description: text</text><ellipse cx="548" cy="98.1641" fill="none" rx="3" ry="3" style="stroke:#038048;stroke-width:1.0;"/><text fill="#000000" font-family="sans-serif" font-size="14" lengthAdjust="spacing" textLength="155" x="557" y="101.5107">created_at: timestamp</text><ellipse cx="548" cy="114.4609" fill="none" rx="3" ry="3" style="stroke:#038048;stroke-width:1.0;"/><text fill="#000000" font-family="sans-serif" font-size="14" lengthAdjust="spacing" textLength="160" x="557" y="117.8076">updated_at: timestamp</text><line style="stroke:#000000;stroke-width:0.5;" x1="538" x2="751" y1="125.1094" y2="125.1094"/><ellipse cx="548" cy="138.7578" fill="#84BE84" rx="3" ry="3" style="stroke:#038048;stroke-width:1.0;"/><text fill="#000000" font-family="sans-serif" font-size="14" lengthAdjust="spacing" textLength="135" x="557" y="142.1045">name: varchar(255)</text></g><!--class test_answers--><g id="elem_test_answers"><rect codeLine="117" fill="#FFFFFF" height="142.4063" id="test_answers" rx="2.5" ry="2.5" style="stroke:#000000;stroke-width:0.5;" width="230" x="1113" y="8"/><text fill="#000000" font-family="Calibri" font-size="16" lengthAdjust="spacing" textLength="104" x="1176" y="27.8516">test_answers</text><line style="stroke:#000000;stroke-width:0.5;" x1="1114" x2="1342" y1="36.625" y2="36.625"/><ellipse cx="1124" cy="50.2734" fill="none" rx="3" ry="3" style="stroke:#038048;stroke-width:1.0;"/><text fill="#000000" font-family="sans-serif" font-size="14" lengthAdjust="spacing" textLength="136" x="1133" y="53.6201">id: bigint UNSIGNED</text><ellipse cx="1124" cy="66.5703" fill="none" rx="3" ry="3" style="stroke:#038048;stroke-width:1.0;"/><text fill="#000000" font-family="sans-serif" font-size="14" lengthAdjust="spacing" textLength="204" x="1133" y="69.917">question_id: bigint UNSIGNED</text><ellipse cx="1124" cy="82.8672" fill="none" rx="3" ry="3" style="stroke:#038048;stroke-width:1.0;"/><text fill="#000000" font-family="sans-serif" font-size="14" lengthAdjust="spacing" textLength="85" x="1133" y="86.2139">answer: text</text><ellipse cx="1124" cy="99.1641" fill="none" rx="3" ry="3" style="stroke:#038048;stroke-width:1.0;"/><text fill="#000000" font-family="sans-serif" font-size="14" lengthAdjust="spacing" textLength="155" x="1133" y="102.5107">created_at: timestamp</text><ellipse cx="1124" cy="115.4609" fill="none" rx="3" ry="3" style="stroke:#038048;stroke-width:1.0;"/><text fill="#000000" font-family="sans-serif" font-size="14" lengthAdjust="spacing" textLength="160" x="1133" y="118.8076">updated_at: timestamp</text><line style="stroke:#000000;stroke-width:0.5;" x1="1114" x2="1342" y1="126.1094" y2="126.1094"/><ellipse cx="1124" cy="139.7578" fill="#84BE84" rx="3" ry="3" style="stroke:#038048;stroke-width:1.0;"/><text fill="#000000" font-family="sans-serif" font-size="14" lengthAdjust="spacing" textLength="136" x="1133" y="143.1045">is_correct: tinyint(1)</text></g><!--class test_results--><g id="elem_test_results"><rect codeLine="126" fill="#FFFFFF" height="134.4063" id="test_results" rx="2.5" ry="2.5" style="stroke:#000000;stroke-width:0.5;" width="200" x="1128" y="356"/><text fill="#000000" font-family="Calibri" font-size="16" lengthAdjust="spacing" textLength="91" x="1182.5" y="375.8516">test_results</text><line style="stroke:#000000;stroke-width:0.5;" x1="1129" x2="1327" y1="384.625" y2="384.625"/><ellipse cx="1139" cy="398.2734" fill="none" rx="3" ry="3" style="stroke:#038048;stroke-width:1.0;"/><text fill="#000000" font-family="sans-serif" font-size="14" lengthAdjust="spacing" textLength="136" x="1148" y="401.6201">id: bigint UNSIGNED</text><ellipse cx="1139" cy="414.5703" fill="none" rx="3" ry="3" style="stroke:#038048;stroke-width:1.0;"/><text fill="#000000" font-family="sans-serif" font-size="14" lengthAdjust="spacing" textLength="174" x="1148" y="417.917">user_id: bigint UNSIGNED</text><ellipse cx="1139" cy="430.8672" fill="none" rx="3" ry="3" style="stroke:#038048;stroke-width:1.0;"/><text fill="#000000" font-family="sans-serif" font-size="14" lengthAdjust="spacing" textLength="170" x="1148" y="434.2139">test_id: bigint UNSIGNED</text><ellipse cx="1139" cy="447.1641" fill="none" rx="3" ry="3" style="stroke:#038048;stroke-width:1.0;"/><text fill="#000000" font-family="sans-serif" font-size="14" lengthAdjust="spacing" textLength="155" x="1148" y="450.5107">created_at: timestamp</text><ellipse cx="1139" cy="463.4609" fill="none" rx="3" ry="3" style="stroke:#038048;stroke-width:1.0;"/><text fill="#000000" font-family="sans-serif" font-size="14" lengthAdjust="spacing" textLength="160" x="1148" y="466.8076">updated_at: timestamp</text><ellipse cx="1139" cy="479.7578" fill="none" rx="3" ry="3" style="stroke:#038048;stroke-width:1.0;"/><text fill="#000000" font-family="sans-serif" font-size="14" lengthAdjust="spacing" textLength="166" x="1148" y="483.1045">score: tinyint UNSIGNED</text></g><!--class users--><g id="elem_users"><rect codeLine="135" fill="#FFFFFF" height="207.5938" id="users" rx="2.5" ry="2.5" style="stroke:#000000;stroke-width:0.5;" width="241" x="812" y="321"/><text fill="#000000" font-family="Calibri" font-size="16" lengthAdjust="spacing" textLength="44" x="910.5" y="340.8516">users</text><line style="stroke:#000000;stroke-width:0.5;" x1="813" x2="1052" y1="349.625" y2="349.625"/><ellipse cx="823" cy="363.2734" fill="none" rx="3" ry="3" style="stroke:#038048;stroke-width:1.0;"/><text fill="#000000" font-family="sans-serif" font-size="14" lengthAdjust="spacing" textLength="136" x="832" y="366.6201">id: bigint UNSIGNED</text><ellipse cx="823" cy="379.5703" fill="none" rx="3" ry="3" style="stroke:#038048;stroke-width:1.0;"/><text fill="#000000" font-family="sans-serif" font-size="14" lengthAdjust="spacing" textLength="194" x="832" y="382.917">email_verified_at: timestamp</text><ellipse cx="823" cy="395.8672" fill="none" rx="3" ry="3" style="stroke:#038048;stroke-width:1.0;"/><text fill="#000000" font-family="sans-serif" font-size="14" lengthAdjust="spacing" textLength="155" x="832" y="399.2139">created_at: timestamp</text><ellipse cx="823" cy="412.1641" fill="none" rx="3" ry="3" style="stroke:#038048;stroke-width:1.0;"/><text fill="#000000" font-family="sans-serif" font-size="14" lengthAdjust="spacing" textLength="160" x="832" y="415.5107">updated_at: timestamp</text><line style="stroke:#000000;stroke-width:0.5;" x1="813" x2="1052" y1="422.8125" y2="422.8125"/><ellipse cx="823" cy="436.4609" fill="#84BE84" rx="3" ry="3" style="stroke:#038048;stroke-width:1.0;"/><text fill="#000000" font-family="sans-serif" font-size="14" lengthAdjust="spacing" textLength="135" x="832" y="439.8076">name: varchar(255)</text><ellipse cx="823" cy="452.7578" fill="#84BE84" rx="3" ry="3" style="stroke:#038048;stroke-width:1.0;"/><text fill="#000000" font-family="sans-serif" font-size="14" lengthAdjust="spacing" textLength="132" x="832" y="456.1045">email: varchar(255)</text><ellipse cx="823" cy="469.0547" fill="#84BE84" rx="3" ry="3" style="stroke:#038048;stroke-width:1.0;"/><text fill="#000000" font-family="sans-serif" font-size="14" lengthAdjust="spacing" textLength="163" x="832" y="472.4014">password: varchar(255)</text><ellipse cx="823" cy="485.3516" fill="#84BE84" rx="3" ry="3" style="stroke:#038048;stroke-width:1.0;"/><text fill="#000000" font-family="sans-serif" font-size="14" lengthAdjust="spacing" textLength="215" x="832" y="488.6982">remember_token: varchar(100)</text><ellipse cx="823" cy="501.6484" fill="#84BE84" rx="3" ry="3" style="stroke:#038048;stroke-width:1.0;"/><text fill="#000000" font-family="sans-serif" font-size="14" lengthAdjust="spacing" textLength="137" x="832" y="504.9951">avatar: varchar(255)</text><ellipse cx="823" cy="517.9453" fill="#84BE84" rx="3" ry="3" style="stroke:#038048;stroke-width:1.0;"/><text fill="#000000" font-family="sans-serif" font-size="14" lengthAdjust="spacing" textLength="95" x="832" y="521.292">role: tinyint(1)</text></g><!--link courses to lessons--><g id="link_courses_lessons"><path codeLine="148" d="M201.06,498 C201.06,498 244.6,498 244.6,498 " fill="none" id="courses-lessons" style="stroke:#000000;stroke-width:1.0;"/><line style="stroke:#000000;stroke-width:1.0;" x1="197.06" x2="197.06" y1="502" y2="494"/><line style="stroke:#000000;stroke-width:1.0;" x1="200.06" x2="200.06" y1="502" y2="494"/><line style="stroke:#000000;stroke-width:1.0;" x1="201.06" x2="193.06" y1="498" y2="498"/><line style="stroke:#000000;stroke-width:1.0;" x1="244.6" x2="252.6" y1="498" y2="492"/><line style="stroke:#000000;stroke-width:1.0;" x1="244.6" x2="252.6" y1="498" y2="504"/><line style="stroke:#000000;stroke-width:1.0;" x1="244.6" x2="252.6" y1="498" y2="498"/><ellipse cx="238.6" cy="498" fill="none" rx="4" ry="4" style="stroke:#000000;stroke-width:1.0;"/><text fill="#000000" font-family="sans-serif" font-size="13" lengthAdjust="spacing" textLength="54" x="167.83" y="511.0669">contains</text></g><!--link lessons to messages--><g id="link_lessons_messages"><path codeLine="149" d="M485.07,326.75 C485.07,326.75 528.94,326.75 528.94,326.75 " fill="none" id="lessons-messages" style="stroke:#000000;stroke-width:1.0;"/><line style="stroke:#000000;stroke-width:1.0;" x1="481.07" x2="481.07" y1="330.75" y2="322.75"/><line style="stroke:#000000;stroke-width:1.0;" x1="484.07" x2="484.07" y1="330.75" y2="322.75"/><line style="stroke:#000000;stroke-width:1.0;" x1="485.07" x2="477.07" y1="326.75" y2="326.75"/><line style="stroke:#000000;stroke-width:1.0;" x1="528.94" x2="536.94" y1="326.75" y2="320.75"/><line style="stroke:#000000;stroke-width:1.0;" x1="528.94" x2="536.94" y1="326.75" y2="332.75"/><line style="stroke:#000000;stroke-width:1.0;" x1="528.94" x2="536.94" y1="326.75" y2="326.75"/><line style="stroke:#000000;stroke-width:1.0;" x1="526.94" x2="526.94" y1="322.75" y2="330.75"/><text fill="#000000" font-family="sans-serif" font-size="13" lengthAdjust="spacing" textLength="23" x="483.01" y="339.8169">has</text></g><!--link lessons to difficulties--><g id="link_lessons_difficulties"><path codeLine="150" d="M485.07,533 C485.07,533 543.24,533 543.24,533 " fill="none" id="lessons-difficulties" style="stroke:#000000;stroke-width:1.0;"/><line style="stroke:#000000;stroke-width:1.0;" x1="485.07" x2="477.07" y1="533" y2="539"/><line style="stroke:#000000;stroke-width:1.0;" x1="485.07" x2="477.07" y1="533" y2="527"/><line style="stroke:#000000;stroke-width:1.0;" x1="485.07" x2="477.07" y1="533" y2="533"/><ellipse cx="491.07" cy="533" fill="none" rx="4" ry="4" style="stroke:#000000;stroke-width:1.0;"/><line style="stroke:#000000;stroke-width:1.0;" x1="547.24" x2="547.24" y1="529" y2="537"/><line style="stroke:#000000;stroke-width:1.0;" x1="544.24" x2="544.24" y1="529" y2="537"/><line style="stroke:#000000;stroke-width:1.0;" x1="543.24" x2="551.24" y1="533" y2="533"/><text fill="#000000" font-family="sans-serif" font-size="13" lengthAdjust="spacing" textLength="67" x="515.16" y="529.0669">belongs to</text></g><!--link courses to course_user--><g id="link_courses_course_user"><path codeLine="151" d="M201.06,632 C201.06,632 248.28,632 248.28,632 " fill="none" id="courses-course_user" style="stroke:#000000;stroke-width:1.0;"/><line style="stroke:#000000;stroke-width:1.0;" x1="197.06" x2="197.06" y1="636" y2="628"/><line style="stroke:#000000;stroke-width:1.0;" x1="200.06" x2="200.06" y1="636" y2="628"/><line style="stroke:#000000;stroke-width:1.0;" x1="201.06" x2="193.06" y1="632" y2="632"/><line style="stroke:#000000;stroke-width:1.0;" x1="248.28" x2="256.28" y1="632" y2="626"/><line style="stroke:#000000;stroke-width:1.0;" x1="248.28" x2="256.28" y1="632" y2="638"/><line style="stroke:#000000;stroke-width:1.0;" x1="248.28" x2="256.28" y1="632" y2="632"/><ellipse cx="242.28" cy="632" fill="none" rx="4" ry="4" style="stroke:#000000;stroke-width:1.0;"/><text fill="#000000" font-family="sans-serif" font-size="13" lengthAdjust="spacing" textLength="69" x="154.67" y="645.0669">is taken by</text></g><!--link lessons to lesson_user--><g id="link_lessons_lesson_user"><path codeLine="152" d="M485.07,430 C485.07,430 528.94,430 528.94,430 " fill="none" id="lessons-lesson_user" style="stroke:#000000;stroke-width:1.0;"/><line style="stroke:#000000;stroke-width:1.0;" x1="481.07" x2="481.07" y1="434" y2="426"/><line style="stroke:#000000;stroke-width:1.0;" x1="484.07" x2="484.07" y1="434" y2="426"/><line style="stroke:#000000;stroke-width:1.0;" x1="485.07" x2="477.07" y1="430" y2="430"/><line style="stroke:#000000;stroke-width:1.0;" x1="528.94" x2="536.94" y1="430" y2="424"/><line style="stroke:#000000;stroke-width:1.0;" x1="528.94" x2="536.94" y1="430" y2="436"/><line style="stroke:#000000;stroke-width:1.0;" x1="528.94" x2="536.94" y1="430" y2="430"/><ellipse cx="522.94" cy="430" fill="none" rx="4" ry="4" style="stroke:#000000;stroke-width:1.0;"/><text fill="#000000" font-family="sans-serif" font-size="13" lengthAdjust="spacing" textLength="69" x="437.01" y="443.0669">is taken by</text></g><!--link lesson_user to users--><g id="link_lesson_user_users"><path codeLine="153" d="M760.15,430 C760.15,430 803.92,430 803.92,430 " fill="none" id="lesson_user-users" style="stroke:#000000;stroke-width:1.0;"/><line style="stroke:#000000;stroke-width:1.0;" x1="760.15" x2="752.15" y1="430" y2="436"/><line style="stroke:#000000;stroke-width:1.0;" x1="760.15" x2="752.15" y1="430" y2="424"/><line style="stroke:#000000;stroke-width:1.0;" x1="760.15" x2="752.15" y1="430" y2="430"/><ellipse cx="766.15" cy="430" fill="none" rx="4" ry="4" style="stroke:#000000;stroke-width:1.0;"/><line style="stroke:#000000;stroke-width:1.0;" x1="807.92" x2="807.92" y1="426" y2="434"/><line style="stroke:#000000;stroke-width:1.0;" x1="804.92" x2="804.92" y1="426" y2="434"/><line style="stroke:#000000;stroke-width:1.0;" x1="803.92" x2="811.92" y1="430" y2="430"/><text fill="#000000" font-family="sans-serif" font-size="13" lengthAdjust="spacing" textLength="67" x="714.03" y="443.0669">belongs to</text></g><!--link course_user to users--><g id="link_course_user_users"><path codeLine="154" d="M481.51,677 C481.51,677 933,677 933,677 C933,677 933,537.32 933,537.32 " fill="none" id="course_user-users" style="stroke:#000000;stroke-width:1.0;"/><line style="stroke:#000000;stroke-width:1.0;" x1="481.51" x2="473.51" y1="677" y2="683"/><line style="stroke:#000000;stroke-width:1.0;" x1="481.51" x2="473.51" y1="677" y2="671"/><line style="stroke:#000000;stroke-width:1.0;" x1="481.51" x2="473.51" y1="677" y2="677"/><ellipse cx="487.51" cy="677" fill="none" rx="4" ry="4" style="stroke:#000000;stroke-width:1.0;"/><line style="stroke:#000000;stroke-width:1.0;" x1="929" x2="937" y1="533.32" y2="533.32"/><line style="stroke:#000000;stroke-width:1.0;" x1="929" x2="937" y1="536.32" y2="536.32"/><line style="stroke:#000000;stroke-width:1.0;" x1="933" x2="933" y1="537.32" y2="529.32"/><text fill="#000000" font-family="sans-serif" font-size="13" lengthAdjust="spacing" textLength="67" x="709.1" y="690.0669">belongs to</text></g><!--link questions to test_answers--><g id="link_questions_test_answers"><path codeLine="155" d="M1038.9,79 C1038.9,79 1104.89,79 1104.89,79 " fill="none" id="questions-test_answers" style="stroke:#000000;stroke-width:1.0;"/><line style="stroke:#000000;stroke-width:1.0;" x1="1034.9" x2="1034.9" y1="83" y2="75"/><line style="stroke:#000000;stroke-width:1.0;" x1="1037.9" x2="1037.9" y1="83" y2="75"/><line style="stroke:#000000;stroke-width:1.0;" x1="1038.9" x2="1030.9" y1="79" y2="79"/><line style="stroke:#000000;stroke-width:1.0;" x1="1104.89" x2="1112.89" y1="79" y2="73"/><line style="stroke:#000000;stroke-width:1.0;" x1="1104.89" x2="1112.89" y1="79" y2="85"/><line style="stroke:#000000;stroke-width:1.0;" x1="1104.89" x2="1112.89" y1="79" y2="79"/><ellipse cx="1098.89" cy="79" fill="none" rx="4" ry="4" style="stroke:#000000;stroke-width:1.0;"/><text fill="#000000" font-family="sans-serif" font-size="13" lengthAdjust="spacing" textLength="54" x="1072.89" y="92.0669">contains</text></g><!--link tests to questions--><g id="link_tests_questions"><path codeLine="156" d="M760.15,79 C760.15,79 826.48,79 826.48,79 " fill="none" id="tests-questions" style="stroke:#000000;stroke-width:1.0;"/><line style="stroke:#000000;stroke-width:1.0;" x1="756.15" x2="756.15" y1="83" y2="75"/><line style="stroke:#000000;stroke-width:1.0;" x1="759.15" x2="759.15" y1="83" y2="75"/><line style="stroke:#000000;stroke-width:1.0;" x1="760.15" x2="752.15" y1="79" y2="79"/><line style="stroke:#000000;stroke-width:1.0;" x1="826.48" x2="834.48" y1="79" y2="73"/><line style="stroke:#000000;stroke-width:1.0;" x1="826.48" x2="834.48" y1="79" y2="85"/><line style="stroke:#000000;stroke-width:1.0;" x1="826.48" x2="834.48" y1="79" y2="79"/><ellipse cx="820.48" cy="79" fill="none" rx="4" ry="4" style="stroke:#000000;stroke-width:1.0;"/><text fill="#000000" font-family="sans-serif" font-size="13" lengthAdjust="spacing" textLength="54" x="738.32" y="92.0669">contains</text></g><!--link tests to test_results--><g id="link_tests_test_results"><path codeLine="157" d="M760.05,143.5 C760.05,143.5 1083,143.5 1083,143.5 C1083,143.5 1083,400.67 1083,400.67 C1083,400.67 1119.69,400.67 1119.69,400.67 " fill="none" id="tests-test_results" style="stroke:#000000;stroke-width:1.0;"/><line style="stroke:#000000;stroke-width:1.0;" x1="756.05" x2="756.05" y1="147.5" y2="139.5"/><line style="stroke:#000000;stroke-width:1.0;" x1="759.05" x2="759.05" y1="147.5" y2="139.5"/><line style="stroke:#000000;stroke-width:1.0;" x1="760.05" x2="752.05" y1="143.5" y2="143.5"/><line style="stroke:#000000;stroke-width:1.0;" x1="1119.69" x2="1127.69" y1="400.67" y2="394.67"/><line style="stroke:#000000;stroke-width:1.0;" x1="1119.69" x2="1127.69" y1="400.67" y2="406.67"/><line style="stroke:#000000;stroke-width:1.0;" x1="1119.69" x2="1127.69" y1="400.67" y2="400.67"/><ellipse cx="1113.69" cy="400.67" fill="none" rx="4" ry="4" style="stroke:#000000;stroke-width:1.0;"/><text fill="#000000" font-family="sans-serif" font-size="13" lengthAdjust="spacing" textLength="54" x="1013.45" y="156.5669">contains</text></g><!--link lessons to tests--><g id="link_lessons_tests"><path codeLine="158" d="M365,309.66 C365,309.66 365,78 365,78 C365,78 528.84,78 528.84,78 " fill="none" id="lessons-tests" style="stroke:#000000;stroke-width:1.0;"/><line style="stroke:#000000;stroke-width:1.0;" x1="369" x2="361" y1="313.66" y2="313.66"/><line style="stroke:#000000;stroke-width:1.0;" x1="369" x2="361" y1="310.66" y2="310.66"/><line style="stroke:#000000;stroke-width:1.0;" x1="365" x2="365" y1="309.66" y2="317.66"/><line style="stroke:#000000;stroke-width:1.0;" x1="528.84" x2="536.84" y1="78" y2="72"/><line style="stroke:#000000;stroke-width:1.0;" x1="528.84" x2="536.84" y1="78" y2="84"/><line style="stroke:#000000;stroke-width:1.0;" x1="528.84" x2="536.84" y1="78" y2="78"/><line style="stroke:#000000;stroke-width:1.0;" x1="526.84" x2="526.84" y1="74" y2="82"/><text fill="#000000" font-family="sans-serif" font-size="13" lengthAdjust="spacing" textLength="54" x="310" y="124.9769">contains</text></g><!--link questions to saved_answers--><g id="link_questions_saved_answers"><path codeLine="159" d="M933,146.39 C933,146.39 933,253 933,253 C933,253 1104.68,253 1104.68,253 " fill="none" id="questions-saved_answers" style="stroke:#000000;stroke-width:1.0;"/><line style="stroke:#000000;stroke-width:1.0;" x1="929" x2="937" y1="142.39" y2="142.39"/><line style="stroke:#000000;stroke-width:1.0;" x1="929" x2="937" y1="145.39" y2="145.39"/><line style="stroke:#000000;stroke-width:1.0;" x1="933" x2="933" y1="146.39" y2="138.39"/><line style="stroke:#000000;stroke-width:1.0;" x1="1104.68" x2="1112.68" y1="253" y2="247"/><line style="stroke:#000000;stroke-width:1.0;" x1="1104.68" x2="1112.68" y1="253" y2="259"/><line style="stroke:#000000;stroke-width:1.0;" x1="1104.68" x2="1112.68" y1="253" y2="253"/><ellipse cx="1098.68" cy="253" fill="none" rx="4" ry="4" style="stroke:#000000;stroke-width:1.0;"/><text fill="#000000" font-family="sans-serif" font-size="13" lengthAdjust="spacing" textLength="54" x="910.54" y="266.0669">contains</text></g><!--link users to saved_answers--><g id="link_users_saved_answers"><path codeLine="160" d="M1061.21,338.5 C1061.21,338.5 1121,338.5 1121,338.5 C1121,338.5 1121,328.37 1121,328.37 " fill="none" id="users-saved_answers" style="stroke:#000000;stroke-width:1.0;"/><line style="stroke:#000000;stroke-width:1.0;" x1="1057.21" x2="1057.21" y1="342.5" y2="334.5"/><line style="stroke:#000000;stroke-width:1.0;" x1="1060.21" x2="1060.21" y1="342.5" y2="334.5"/><line style="stroke:#000000;stroke-width:1.0;" x1="1061.21" x2="1053.21" y1="338.5" y2="338.5"/><line style="stroke:#000000;stroke-width:1.0;" x1="1121" x2="1115" y1="328.37" y2="320.37"/><line style="stroke:#000000;stroke-width:1.0;" x1="1121" x2="1127" y1="328.37" y2="320.37"/><line style="stroke:#000000;stroke-width:1.0;" x1="1121" x2="1121" y1="328.37" y2="320.37"/><ellipse cx="1121" cy="334.37" fill="none" rx="4" ry="4" style="stroke:#000000;stroke-width:1.0;"/><text fill="#000000" font-family="sans-serif" font-size="13" lengthAdjust="spacing" textLength="54" x="1097.17" y="351.5669">contains</text></g><!--link users to test_results--><g id="link_users_test_results"><path codeLine="161" d="M1061.12,445.33 C1061.12,445.33 1119.57,445.33 1119.57,445.33 " fill="none" id="users-test_results" style="stroke:#000000;stroke-width:1.0;"/><line style="stroke:#000000;stroke-width:1.0;" x1="1057.12" x2="1057.12" y1="449.33" y2="441.33"/><line style="stroke:#000000;stroke-width:1.0;" x1="1060.12" x2="1060.12" y1="449.33" y2="441.33"/><line style="stroke:#000000;stroke-width:1.0;" x1="1061.12" x2="1053.12" y1="445.33" y2="445.33"/><line style="stroke:#000000;stroke-width:1.0;" x1="1119.57" x2="1127.57" y1="445.33" y2="439.33"/><line style="stroke:#000000;stroke-width:1.0;" x1="1119.57" x2="1127.57" y1="445.33" y2="451.33"/><line style="stroke:#000000;stroke-width:1.0;" x1="1119.57" x2="1127.57" y1="445.33" y2="445.33"/><ellipse cx="1113.57" cy="445.33" fill="none" rx="4" ry="4" style="stroke:#000000;stroke-width:1.0;"/><text fill="#000000" font-family="sans-serif" font-size="13" lengthAdjust="spacing" textLength="35" x="1054.35" y="458.3969">takes</text></g><!--SRC=[hLRBRjim4BphAmYV4hG1uW3fmRSysgAN71eKFHgKj9QseKXrITbru_nxbthOaYqhYQiRERla3eV3Huen2CXojnOPP26G3L8FHKYHWa31mWbd166IEX4ZGUJGw22mJwXpIJ8JaPBMYkT0Y5iPFILa2XtV6ML8_4pH0UCtH6PLGRUAStogeHYeYtqnsZt83CITL1WIrj0Z_WKn_TJqt5g1q8OogMgeEyltgZvf836z3bvQJ3t7Ey-sE-sDSuHXuQ0BAzJWrZa8GourdOdsGW5eXopW9385MR0J8QsessNH3nZFH8W9QYT-F3n- -_hm-Tx3F4h1J2mbHQcaiwlhwtCFvmHBXDLX80OR4UP-1sR2mH_dmOX0EeZdqZ666LWdizm7YZpk3sWMkQSgBoqXcQTs9dvPtkEI2KQS6aE4hFVPzFBZLKr4mU7KB_jAp0iBr5AZx0yguXFcHsBr7CUYxvEXnJN6nGAZGZcijwuD3BBj5_9q9Wk0E6GRbooQpWaC89Ee3c6kQ6K29rkdnLJnL4PNSjNjjpYzASnkIk2j_kPJoMLtm7PxrYDvuOZvX_tswX6ePDaTWLR_v2DGpp7w4QYTKUrdqnbaESnaQ0qiDPSz5WrDl1x3eByBnh2nwBOtR59EEiQhcM4CRbOkVLZR5J-t9RyESh8xgl7Z7OfcpRqpjjRZTQlMKRR-mpVzrzaOpzuUtOxwRM2G_A0WsmreNNDs7XdoVoPFHQyv_snwFW9x0iltNujz3PnidI7hlzyubbSDsoNtUiQJgVYNhV4UkHAUBu5mWVqtlRKh_dqUZYIeVi1pPvv0x-BJoylpqtIGI-aazLGo2ZgEO66Q_-9cSt5XdhUFwapuzq-Yja43-OpDy-wQdebKxg8lXgERxXzc9YOXAACJTekPx9Tg_yqu4pb9iW0YN4ywDRUiXbAhM4sYsjhUwg_dxUxikdZdcBPqgIwTEcatwbX6vxmSbxSQqueVyEbUsgtCQZdlojeZvLMrmJy0]--></g></svg>